<svg xmlns="http://www.w3.org/2000/svg" xmlns:xlink="http://www.w3.org/1999/xlink" width="480" zoomAndPan="magnify" viewBox="0 0 360 359.999987" height="480" preserveAspectRatio="xMidYMid meet" version="1.0"><defs><clipPath id="d86af353ce"><path d="M 1.289062 1.289062 L 359.039062 1.289062 L 359.039062 359.039062 L 1.289062 359.039062 Z M 1.289062 1.289062 " clip-rule="nonzero"/></clipPath><clipPath id="b2ccfb7041"><path d="M 210 167 L 223 167 L 223 180 L 210 180 Z M 210 167 " clip-rule="nonzero"/></clipPath><clipPath id="649ad73541"><path d="M 210.03125 175.039062 L 217.976562 167.644531 L 222.59375 172.601562 L 214.644531 179.996094 Z M 210.03125 175.039062 " clip-rule="nonzero"/></clipPath></defs><g clip-path="url(#d86af353ce)"><path fill="#000000" d="M 180.164062 1.289062 C 81.371094 1.289062 1.289062 81.371094 1.289062 180.164062 C 1.289062 278.953125 81.371094 359.039062 180.164062 359.039062 C 278.953125 359.039062 359.039062 278.953125 359.039062 180.164062 C 359.039062 81.371094 278.953125 1.289062 180.164062 1.289062 Z M 180.164062 345.488281 C 88.855469 345.488281 14.835938 271.46875 14.835938 180.164062 C 14.835938 88.855469 88.855469 14.835938 180.164062 14.835938 C 271.46875 14.835938 345.488281 88.855469 345.488281 180.164062 C 345.488281 271.46875 271.46875 345.488281 180.164062 345.488281 Z M 180.164062 345.488281 " fill-opacity="1" fill-rule="nonzero"/></g><path fill="#000000" d="M 159.167969 267.839844 C 154.683594 268.273438 151.097656 268.765625 147.5 268.9375 C 127.089844 269.902344 111.980469 261.855469 102.816406 243.09375 C 99.898438 237.117188 96.160156 231.476562 92.269531 226.0625 C 89.933594 222.8125 86.660156 220.199219 83.636719 217.492188 L 83.601562 217.460938 C 81.730469 215.8125 82.554688 212.738281 85.011719 212.324219 C 87.894531 211.839844 90.582031 212.359375 93.203125 213.027344 C 101.410156 215.117188 106.675781 220.933594 110.875 227.890625 C 120.367188 243.628906 136.710938 250.191406 154.386719 245.503906 C 157.386719 244.707031 158.710938 243.414062 159.363281 240.144531 C 160.125 236.328125 161.160156 232.5625 162.273438 228.730469 C 162.4375 228.164062 162.542969 227.589844 162.589844 227.003906 C 162.636719 226.414062 162.625 225.832031 162.550781 225.246094 C 162.480469 224.664062 162.347656 224.09375 162.160156 223.535156 C 161.972656 222.976562 161.730469 222.445312 161.433594 221.9375 C 161.136719 221.429688 160.792969 220.957031 160.398438 220.519531 C 160.007812 220.082031 159.574219 219.6875 159.101562 219.335938 C 158.628906 218.988281 158.125 218.6875 157.589844 218.441406 C 157.058594 218.195312 156.503906 218.003906 155.933594 217.867188 L 155.832031 217.84375 C 137.496094 213.457031 121.652344 205.285156 111.445312 188.527344 C 105.984375 179.566406 103.285156 169.691406 103.421875 159.410156 C 103.582031 147.738281 104.613281 136.046875 105.953125 124.445312 C 106.898438 116.273438 110.679688 109.039062 116.554688 103.164062 C 118.601562 101.117188 118.777344 99.398438 117.789062 96.75 C 113.742188 85.890625 114.445312 75.015625 118.035156 64.132812 C 119.050781 61.066406 120.488281 60.625 123.425781 61.550781 C 132.511719 64.410156 139.292969 70.324219 145.25 77.40625 L 145.308594 77.476562 C 146.058594 78.375 146.921875 79.148438 147.902344 79.785156 C 148.882812 80.425781 149.933594 80.910156 151.058594 81.234375 C 152.179688 81.558594 153.328125 81.710938 154.496094 81.695312 C 155.667969 81.675781 156.808594 81.484375 157.921875 81.125 C 176.777344 74.9375 205.386719 74.855469 223.171875 80.976562 C 224.289062 81.355469 225.441406 81.5625 226.621094 81.59375 C 227.800781 81.625 228.957031 81.480469 230.09375 81.160156 C 231.230469 80.839844 232.292969 80.359375 233.28125 79.71875 C 234.273438 79.078125 235.148438 78.304688 235.902344 77.398438 L 235.960938 77.328125 C 241.929688 70.25 248.738281 64.382812 257.816406 61.515625 C 260.867188 60.550781 262.164062 61.285156 263.128906 64.246094 C 266.671875 75.132812 267.273438 85.945312 263.441406 96.914062 C 262.902344 98.457031 262.925781 101.144531 263.882812 102.117188 C 272.027344 110.378906 275.589844 120.628906 276.496094 131.738281 C 277.371094 142.472656 278.316406 153.386719 277.320312 164.042969 C 274.726562 191.761719 257.875 207.902344 232.25 215.925781 C 230.054688 216.613281 227.828125 217.191406 225.554688 217.726562 C 224.960938 217.867188 224.390625 218.066406 223.84375 218.324219 C 223.292969 218.585938 222.777344 218.898438 222.292969 219.265625 C 221.808594 219.636719 221.371094 220.050781 220.972656 220.507812 C 220.574219 220.96875 220.230469 221.464844 219.9375 222 C 219.644531 222.53125 219.414062 223.089844 219.238281 223.671875 C 219.0625 224.25 218.949219 224.84375 218.898438 225.449219 C 218.847656 226.054688 218.859375 226.660156 218.933594 227.261719 C 219.011719 227.867188 219.148438 228.453125 219.347656 229.027344 C 222.839844 239.144531 222.304688 249.953125 222.25 260.691406 C 222.238281 263.15625 222.230469 265.625 222.226562 268.097656 C 222.222656 269.117188 222.171875 270.136719 222.070312 271.148438 C 221.96875 272.164062 221.816406 273.171875 221.613281 274.171875 C 221.414062 275.171875 221.164062 276.15625 220.867188 277.132812 C 220.570312 278.109375 220.222656 279.066406 219.832031 280.007812 C 219.441406 280.949219 219.003906 281.871094 218.523438 282.769531 C 218.039062 283.667969 217.515625 284.539062 216.949219 285.386719 C 216.378906 286.234375 215.773438 287.050781 215.125 287.839844 C 214.476562 288.625 213.792969 289.378906 213.070312 290.101562 C 212.347656 290.820312 211.59375 291.503906 210.804688 292.148438 C 210.015625 292.796875 209.195312 293.402344 208.347656 293.96875 C 207.5 294.53125 206.625 295.054688 205.726562 295.535156 C 204.828125 296.015625 203.90625 296.449219 202.964844 296.839844 C 202.019531 297.230469 201.0625 297.574219 200.085938 297.867188 C 199.109375 298.164062 198.121094 298.410156 197.121094 298.609375 C 196.121094 298.808594 195.113281 298.957031 194.097656 299.058594 C 193.085938 299.15625 192.066406 299.207031 191.046875 299.207031 L 190.34375 299.207031 C 189.324219 299.207031 188.304688 299.15625 187.289062 299.054688 C 186.273438 298.957031 185.265625 298.804688 184.261719 298.605469 C 183.261719 298.410156 182.273438 298.160156 181.292969 297.863281 C 180.316406 297.566406 179.359375 297.222656 178.414062 296.832031 C 177.46875 296.441406 176.546875 296.007812 175.648438 295.523438 C 174.746094 295.042969 173.871094 294.519531 173.023438 293.953125 C 172.175781 293.382812 171.355469 292.777344 170.566406 292.128906 C 169.777344 291.480469 169.019531 290.796875 168.300781 290.074219 C 167.578125 289.351562 166.890625 288.597656 166.246094 287.808594 C 165.597656 287.019531 164.988281 286.199219 164.421875 285.351562 C 163.855469 284.5 163.332031 283.625 162.847656 282.726562 C 162.367188 281.824219 161.929688 280.902344 161.539062 279.960938 C 161.148438 279.015625 160.804688 278.054688 160.511719 277.078125 C 160.214844 276.101562 159.964844 275.113281 159.765625 274.109375 C 159.566406 273.109375 159.417969 272.101562 159.316406 271.085938 C 159.21875 270.066406 159.167969 269.050781 159.167969 268.027344 Z M 159.167969 267.839844 " fill-opacity="1" fill-rule="nonzero"/><g clip-path="url(#b2ccfb7041)"><g clip-path="url(#649ad73541)"><path fill="#000000" d="M 210.03125 175.039062 L 217.972656 167.648438 L 222.585938 172.605469 L 214.644531 179.996094 Z M 210.03125 175.039062 " fill-opacity="1" fill-rule="nonzero"/></g></g></svg>