<svg xmlns="http://www.w3.org/2000/svg" xmlns:xlink="http://www.w3.org/1999/xlink" width="480" zoomAndPan="magnify" viewBox="0 0 360 359.999987" height="480" preserveAspectRatio="xMidYMid meet" version="1.0"><defs><clipPath id="c28ee30493"><path d="M 261 263 L 274 263 L 274 276 L 261 276 Z M 261 263 " clip-rule="nonzero"/></clipPath><clipPath id="746c74504c"><path d="M 261.402344 270.46875 L 269.351562 263.074219 L 273.964844 268.03125 L 266.019531 275.429688 Z M 261.402344 270.46875 " clip-rule="nonzero"/></clipPath><clipPath id="47ef80edc0"><path d="M 58 76 L 304.664062 76 L 304.664062 355.828125 L 58 355.828125 Z M 58 76 " clip-rule="nonzero"/></clipPath><clipPath id="ee9c99728c"><path d="M 81 7.828125 L 127 7.828125 L 127 55 L 81 55 Z M 81 7.828125 " clip-rule="nonzero"/></clipPath><clipPath id="18d6f4c210"><path d="M 133 7.828125 L 177 7.828125 L 177 55 L 133 55 Z M 133 7.828125 " clip-rule="nonzero"/></clipPath><clipPath id="fa5134fbf9"><path d="M 183 7.828125 L 237 7.828125 L 237 55 L 183 55 Z M 183 7.828125 " clip-rule="nonzero"/></clipPath><clipPath id="48859c9e01"><path d="M 244 7.828125 L 283 7.828125 L 283 55 L 244 55 Z M 244 7.828125 " clip-rule="nonzero"/></clipPath></defs><g clip-path="url(#c28ee30493)"><g clip-path="url(#746c74504c)"><path fill="#000000" d="M 261.402344 270.46875 L 269.34375 263.078125 L 273.960938 268.039062 L 266.019531 275.429688 Z M 261.402344 270.46875 " fill-opacity="1" fill-rule="nonzero"/></g></g><g clip-path="url(#47ef80edc0)"><path fill="#e44d26" d="M 304.59375 76.214844 L 282.136719 327.828125 L 181.183594 355.8125 L 80.507812 327.867188 L 58.074219 76.214844 L 304.589844 76.210938 L 304.597656 76.210938 Z M 304.59375 76.214844 " fill-opacity="1" fill-rule="nonzero"/></g><path fill="#f16529" d="M 181.335938 334.421875 L 262.914062 311.808594 L 282.109375 96.792969 L 181.335938 96.789062 Z M 181.335938 334.421875 " fill-opacity="1" fill-rule="nonzero"/><path fill="#ebebeb" d="M 137.675781 158.519531 L 181.335938 158.519531 L 181.335938 127.652344 L 103.949219 127.652344 L 104.6875 135.933594 L 112.273438 220.984375 L 181.335938 220.984375 L 181.335938 190.128906 L 140.5 190.128906 Z M 137.675781 158.519531 " fill-opacity="1" fill-rule="nonzero"/><path fill="#ebebeb" d="M 144.632812 236.417969 L 113.652344 236.417969 L 117.976562 284.882812 L 181.191406 302.433594 L 181.335938 302.394531 L 181.335938 270.28125 L 181.203125 270.320312 L 146.832031 261.03125 Z M 144.632812 236.417969 " fill-opacity="1" fill-rule="nonzero"/><g clip-path="url(#ee9c99728c)"><path fill="#000000" d="M 81.011719 7.828125 L 96.695312 7.828125 L 96.695312 23.324219 L 111.042969 23.324219 L 111.042969 7.828125 L 126.726562 7.828125 L 126.726562 54.753906 L 111.042969 54.753906 L 111.042969 39.039062 L 96.695312 39.039062 L 96.695312 54.753906 L 81.011719 54.753906 Z M 81.011719 7.828125 " fill-opacity="1" fill-rule="nonzero"/></g><g clip-path="url(#18d6f4c210)"><path fill="#000000" d="M 147.351562 23.390625 L 133.542969 23.390625 L 133.542969 7.828125 L 176.851562 7.828125 L 176.851562 23.390625 L 163.035156 23.390625 L 163.035156 54.753906 L 147.351562 54.753906 Z M 147.351562 23.390625 " fill-opacity="1" fill-rule="nonzero"/></g><g clip-path="url(#fa5134fbf9)"><path fill="#000000" d="M 183.722656 7.828125 L 200.074219 7.828125 L 210.132812 24.316406 L 220.183594 7.828125 L 236.542969 7.828125 L 236.542969 54.753906 L 220.929688 54.753906 L 220.929688 31.496094 L 210.132812 48.179688 L 209.863281 48.179688 L 199.070312 31.496094 L 199.070312 54.753906 L 183.722656 54.753906 Z M 183.722656 7.828125 " fill-opacity="1" fill-rule="nonzero"/></g><g clip-path="url(#48859c9e01)"><path fill="#000000" d="M 244.351562 7.828125 L 260.035156 7.828125 L 260.035156 39.242188 L 282.097656 39.242188 L 282.097656 54.753906 L 244.351562 54.753906 Z M 244.351562 7.828125 " fill-opacity="1" fill-rule="nonzero"/></g><path fill="#ffffff" d="M 181.230469 220.984375 L 219.238281 220.984375 L 215.652344 261.015625 L 181.230469 270.308594 L 181.230469 302.414062 L 244.496094 284.882812 L 244.960938 279.664062 L 252.21875 198.410156 L 252.972656 190.128906 L 181.230469 190.128906 Z M 181.230469 220.984375 " fill-opacity="1" fill-rule="nonzero"/><path fill="#ffffff" d="M 181.230469 158.441406 L 181.230469 158.519531 L 255.773438 158.519531 L 256.394531 151.578125 L 257.804688 135.933594 L 258.539062 127.652344 L 181.230469 127.652344 Z M 181.230469 158.441406 " fill-opacity="1" fill-rule="nonzero"/></svg>