<svg xmlns="http://www.w3.org/2000/svg" xmlns:xlink="http://www.w3.org/1999/xlink" width="480" zoomAndPan="magnify" viewBox="0 0 360 359.999987" height="480" preserveAspectRatio="xMidYMid meet" version="1.0"><defs><clipPath id="75448ebe59"><path d="M 5.078125 28 L 354.578125 28 L 354.578125 332 L 5.078125 332 Z M 5.078125 28 " clip-rule="nonzero"/></clipPath><clipPath id="ea889f681f"><path d="M 273.804688 263.710938 L 284.660156 263.710938 L 284.660156 270.484375 L 273.804688 270.484375 Z M 273.804688 263.710938 " clip-rule="nonzero"/></clipPath></defs><path fill="#53c1de" d="M 211.035156 179.582031 C 211.035156 162.871094 197.0625 149.320312 179.828125 149.320312 C 162.59375 149.320312 148.617188 162.871094 148.617188 179.582031 C 148.617188 196.296875 162.59375 209.847656 179.828125 209.847656 C 197.0625 209.847656 211.035156 196.296875 211.035156 179.582031 Z M 211.035156 179.582031 " fill-opacity="1" fill-rule="nonzero"/><g clip-path="url(#75448ebe59)"><path fill="#53c1de" d="M 281.1875 123.394531 C 287.777344 97.425781 296.0625 49.265625 266.855469 32.9375 C 237.789062 16.679688 199.960938 47.832031 179.988281 66.53125 C 160.074219 48.019531 121.183594 17 92.003906 33.378906 C 62.949219 49.691406 71.910156 97.050781 78.644531 123.1875 C 51.539062 130.652344 5.078125 146.730469 5.078125 179.582031 C 5.078125 212.339844 51.492188 229.835938 78.4375 237.292969 C 71.675781 263.570312 63.164062 310.257812 92.257812 326.53125 C 121.546875 342.90625 160.3125 312.628906 180.472656 293.726562 C 200.574219 312.535156 238.039062 343.011719 267.109375 326.691406 C 296.277344 310.320312 288.679688 262.804688 281.941406 236.519531 C 308.0625 229.046875 354.578125 211.933594 354.578125 179.582031 C 354.578125 147.046875 307.863281 130.835938 281.1875 123.394531 Z M 277.875 222.589844 C 273.453125 209.011719 267.480469 194.570312 260.179688 179.65625 C 267.148438 165.089844 272.886719 150.835938 277.1875 137.34375 C 296.746094 142.84375 339.648438 155.410156 339.648438 179.582031 C 339.648438 203.984375 298.476562 216.667969 277.875 222.589844 Z M 259.628906 314.160156 C 237.9375 326.335938 205.714844 297.191406 190.867188 283.339844 C 200.71875 272.894531 210.558594 260.753906 220.164062 247.265625 C 237.0625 245.816406 253.023438 243.4375 267.5 240.191406 C 272.242188 258.785156 281.417969 301.929688 259.628906 314.160156 Z M 99.71875 313.988281 C 78.023438 301.855469 87.9375 260.199219 92.914062 240.839844 C 107.226562 243.910156 123.074219 246.121094 140.011719 247.453125 C 149.679688 260.648438 159.808594 272.773438 170.011719 283.398438 C 157.402344 295.226562 121.511719 326.175781 99.71875 313.988281 Z M 20.007812 179.582031 C 20.007812 155.09375 62.652344 142.617188 82.65625 137.132812 C 87.027344 150.925781 92.765625 165.351562 99.6875 179.9375 C 92.675781 194.738281 86.855469 209.390625 82.441406 223.347656 C 63.371094 218.054688 20.007812 204.089844 20.007812 179.582031 Z M 99.484375 45.910156 C 121.269531 33.683594 155.066406 63.460938 169.527344 76.863281 C 159.375 87.4375 149.339844 99.472656 139.753906 112.59375 C 123.316406 114.070312 107.582031 116.441406 93.117188 119.621094 C 87.691406 98.542969 77.726562 58.125 99.484375 45.910156 Z M 230.847656 128.328125 C 241.996094 129.695312 252.679688 131.507812 262.714844 133.730469 C 259.703125 143.089844 255.949219 152.878906 251.527344 162.914062 C 245.117188 151.121094 238.238281 139.566406 230.847656 128.328125 Z M 179.992188 87.210938 C 186.878906 94.445312 193.777344 102.523438 200.5625 111.289062 C 186.800781 110.65625 173.015625 110.652344 159.253906 111.277344 C 166.042969 102.59375 173 94.527344 179.992188 87.210938 Z M 108.253906 162.902344 C 103.90625 152.902344 100.1875 143.070312 97.148438 133.578125 C 107.121094 131.414062 117.753906 129.644531 128.835938 128.300781 C 121.421875 139.515625 114.554688 151.066406 108.253906 162.902344 Z M 129.152344 231.898438 C 117.707031 230.65625 106.914062 228.980469 96.945312 226.875 C 100.03125 217.214844 103.832031 207.167969 108.273438 196.953125 C 114.65625 208.914062 121.628906 220.578125 129.152344 231.898438 Z M 180.40625 272.976562 C 173.332031 265.574219 166.273438 257.382812 159.378906 248.574219 C 173.21875 249.101562 187.085938 249.101562 200.925781 248.503906 C 194.121094 257.472656 187.246094 265.675781 180.40625 272.976562 Z M 251.667969 196.433594 C 256.339844 206.761719 260.277344 216.75 263.40625 226.246094 C 253.273438 228.492188 242.332031 230.296875 230.804688 231.636719 C 238.25 220.1875 245.242188 208.453125 251.667969 196.433594 Z M 211.832031 233.394531 C 190.664062 234.859375 169.359375 234.84375 148.183594 233.511719 C 136.148438 216.46875 125.4375 198.542969 116.191406 179.929688 C 125.394531 161.359375 136.027344 143.46875 148.003906 126.449219 C 169.195312 124.898438 190.519531 124.890625 211.710938 126.460938 C 223.585938 143.476562 234.203125 161.320312 243.617188 179.726562 C 234.316406 198.289062 223.625 216.214844 211.832031 233.394531 Z M 259.398438 45.480469 C 281.1875 57.667969 271.492188 100.949219 266.730469 119.769531 C 252.230469 116.527344 236.484375 114.113281 220 112.609375 C 210.394531 99.351562 200.445312 87.292969 190.457031 76.855469 C 205.101562 63.164062 237.820312 33.410156 259.398438 45.480469 Z M 259.398438 45.480469 " fill-opacity="1" fill-rule="evenodd"/></g><g clip-path="url(#ea889f681f)"><path fill="#53c1de" d="M 273.804688 263.710938 L 284.652344 263.710938 L 284.652344 270.484375 L 273.804688 270.484375 Z M 273.804688 263.710938 " fill-opacity="1" fill-rule="nonzero"/></g></svg>