<svg xmlns="http://www.w3.org/2000/svg" xmlns:xlink="http://www.w3.org/1999/xlink" width="480" zoomAndPan="magnify" viewBox="0 0 360 359.999987" height="480" preserveAspectRatio="xMidYMid meet" version="1.0"><defs><clipPath id="37f4967a75"><path d="M 273.804688 263.710938 L 284.660156 263.710938 L 284.660156 270.484375 L 273.804688 270.484375 Z M 273.804688 263.710938 " clip-rule="nonzero"/></clipPath><clipPath id="a793d38517"><path d="M 5.253906 4.539062 L 354.003906 4.539062 L 354.003906 353.289062 L 5.253906 353.289062 Z M 5.253906 4.539062 " clip-rule="nonzero"/></clipPath></defs><g clip-path="url(#37f4967a75)"><path fill="#53c1de" d="M 273.804688 263.710938 L 284.652344 263.710938 L 284.652344 270.484375 L 273.804688 270.484375 Z M 273.804688 263.710938 " fill-opacity="1" fill-rule="nonzero"/></g><g clip-path="url(#a793d38517)"><path fill="#007acc" d="M 266.816406 4.539062 L 266.816406 304.246094 L 5.253906 265.230469 L 266.816406 353.289062 L 354.003906 316.996094 L 354.003906 40.777344 Z M 175.269531 55.542969 L 95.164062 134.773438 L 46.9375 98.429688 L 27.050781 105.078125 L 76.09375 153.574219 L 27.050781 202.074219 L 46.9375 208.722656 L 95.164062 172.375 L 175.269531 251.550781 L 223.222656 231.226562 L 223.222656 75.921875 Z M 175.269531 112.050781 L 175.269531 195.261719 L 120.230469 153.574219 Z M 175.269531 112.050781 " fill-opacity="1" fill-rule="nonzero"/></g></svg>