<svg xmlns="http://www.w3.org/2000/svg" xmlns:xlink="http://www.w3.org/1999/xlink" width="480" zoomAndPan="magnify" viewBox="0 0 360 359.999987" height="480" preserveAspectRatio="xMidYMid meet" version="1.0"><defs><clipPath id="4dc4d45204"><path d="M 0 51.664062 L 359 51.664062 L 359 308.164062 L 0 308.164062 Z M 0 51.664062 " clip-rule="nonzero"/></clipPath><clipPath id="776e9cf70c"><path d="M 243.121094 284.535156 L 253.980469 284.535156 L 253.980469 291.308594 L 243.121094 291.308594 Z M 243.121094 284.535156 " clip-rule="nonzero"/></clipPath></defs><g clip-path="url(#4dc4d45204)"><path fill="#040606" d="M 234.441406 78 C 237.949219 78.640625 241.605469 79.59375 245.332031 80.835938 C 251.789062 75.210938 259.03125 71.320312 266.132812 69.621094 C 263.660156 67.613281 261.1875 65.605469 258.71875 63.609375 C 254.710938 66.429688 250.496094 69.011719 246.414062 71.511719 C 245.03125 72.359375 243.652344 73.207031 242.277344 74.058594 C 241.628906 74.46875 239.496094 75.519531 236.074219 77.199219 C 235.558594 77.453125 235.003906 77.726562 234.441406 78 Z M 252.269531 83.484375 C 255.601562 84.890625 259.011719 86.535156 262.609375 88.460938 C 264.652344 87.714844 266.707031 86.917969 268.773438 86.113281 C 272.707031 84.582031 276.746094 83.011719 280.816406 81.75 C 277.9375 79.324219 274.945312 76.84375 271.886719 74.328125 C 264.59375 77 258.265625 79.953125 252.269531 83.484375 Z M 271.816406 93.820312 C 272.867188 94.472656 273.9375 95.15625 275.042969 95.878906 C 279.46875 94.746094 283.746094 93.355469 287.023438 92.257812 C 287.945312 91.949219 288.859375 91.609375 289.777344 91.28125 C 290.285156 91.09375 290.800781 90.90625 291.320312 90.71875 C 290.34375 89.871094 289.371094 89.023438 288.390625 88.183594 C 283.210938 90.898438 277.230469 92.554688 271.816406 93.820312 Z M 283.492188 101.613281 C 285.015625 102.691406 286.617188 103.847656 288.359375 105.121094 C 292.304688 104.242188 296.125 103.257812 299.722656 102.195312 C 300.460938 101.980469 301.195312 101.746094 301.933594 101.507812 C 302.289062 101.394531 302.644531 101.28125 303.007812 101.167969 C 301.375 99.671875 299.734375 98.183594 298.085938 96.703125 C 293.835938 99.082031 288.699219 100.527344 283.492188 101.613281 Z M 297.257812 111.765625 C 297.539062 111.65625 297.832031 111.585938 298.140625 111.550781 C 301.40625 111.167969 304.914062 110.742188 308.421875 110.207031 C 309.671875 110.015625 310.90625 109.824219 312.171875 109.789062 C 311.378906 109.03125 310.578125 108.277344 309.785156 107.523438 C 305.902344 109.683594 301.226562 110.664062 296.730469 111.367188 C 296.910156 111.5 297.085938 111.632812 297.257812 111.765625 Z M 317.433594 127.792969 C 317.824219 127.589844 318.25 127.460938 318.703125 127.410156 L 319.582031 127.308594 C 321.605469 127.078125 323.703125 126.839844 325.824219 126.839844 C 326.46875 126.839844 327.113281 126.863281 327.761719 126.914062 C 328.132812 126.941406 328.476562 127.003906 328.800781 127.101562 C 325.453125 123.203125 321.929688 119.480469 318.382812 115.898438 C 318.171875 116.160156 317.914062 116.390625 317.621094 116.585938 C 315.269531 118.121094 312.40625 118.355469 309.882812 118.570312 C 309.25 118.625 308.628906 118.675781 308.023438 118.75 C 307.53125 118.808594 307.03125 118.863281 306.527344 118.921875 C 307.054688 119.339844 307.582031 119.757812 308.109375 120.171875 C 308.703125 120.167969 309.289062 120.160156 309.886719 120.160156 C 311.855469 120.160156 314.179688 120.238281 316.449219 120.820312 C 317.601562 121.117188 318.414062 122.179688 318.414062 123.398438 C 318.414062 124.558594 317.65625 125.535156 316.53125 125.824219 C 316.15625 125.917969 315.777344 126.003906 315.382812 126.082031 C 316.066406 126.644531 316.746094 127.214844 317.433594 127.792969 Z M 26.875 141.394531 C 30.308594 141.625 33.984375 141.890625 38.074219 142.199219 C 46.582031 135.597656 58.984375 130.542969 72.226562 128.179688 C 70.902344 128.089844 69.542969 127.96875 68.132812 127.839844 C 65.421875 127.589844 62.617188 127.332031 59.921875 127.332031 C 55.679688 127.332031 52.546875 127.96875 50.054688 129.351562 C 42.070312 133.765625 34.300781 137.804688 26.875 141.394531 Z M 83.136719 145.953125 C 87.25 146.285156 91.832031 146.648438 96.496094 146.984375 L 96.574219 146.945312 C 99.21875 145.496094 101.839844 143.996094 104.453125 142.488281 C 107.890625 140.519531 111.445312 138.484375 115.019531 136.601562 C 119.871094 134.046875 124.96875 131.554688 130.359375 129.671875 C 121.796875 129.5 113.992188 129.332031 106.445312 129.144531 L 99.417969 128.972656 C 93.574219 128.832031 87.589844 128.683594 81.613281 128.515625 C 82.128906 129.113281 82.453125 129.898438 82.515625 130.792969 C 82.664062 133 81.148438 134.882812 78.996094 135.175781 C 70.792969 136.28125 62.507812 139.054688 54.367188 143.414062 C 54.3125 143.441406 54.261719 143.464844 54.207031 143.5 C 57.476562 143.773438 60.746094 144.050781 64.011719 144.335938 C 68.007812 142.476562 72.246094 140.828125 75.996094 139.375 C 77.582031 138.757812 79.117188 138.160156 80.5625 137.578125 C 91.320312 133.238281 100.609375 131.304688 110.683594 131.304688 L 111.820312 131.3125 C 113.527344 131.339844 114.855469 132.644531 114.902344 134.355469 C 114.949219 136.011719 113.722656 137.359375 112.050781 137.472656 C 101.863281 138.183594 91.832031 142.023438 83.136719 145.953125 Z M 115.105469 148.144531 C 117.152344 148.25 119.195312 148.339844 121.242188 148.425781 L 123.414062 148.523438 C 128.886719 145.015625 134.90625 142.265625 140.738281 139.605469 C 142.132812 138.96875 143.503906 138.34375 144.847656 137.714844 C 150.273438 135.179688 155.957031 132.710938 162.066406 130.230469 C 160.273438 130.199219 154.589844 130.101562 154.589844 130.101562 C 154.570312 130.285156 154.542969 130.464844 154.496094 130.644531 C 154.140625 132.023438 152.960938 132.914062 151.480469 132.914062 L 151.230469 132.914062 C 138.582031 132.914062 126.386719 140.132812 115.628906 146.503906 L 113.027344 148.039062 C 113.722656 148.074219 114.414062 148.113281 115.105469 148.144531 Z M 210.679688 148.652344 C 212.714844 148.835938 214.921875 148.972656 217.105469 148.972656 C 220.105469 148.972656 222.710938 148.726562 225.023438 148.214844 C 224.71875 144.871094 224.640625 141.5 224.675781 138.292969 C 223.640625 139.191406 222.566406 140.125 221.375 140.933594 L 221.007812 141.175781 C 217.933594 143.253906 214.753906 145.398438 211.820312 147.734375 C 211.4375 148.042969 211.058594 148.347656 210.679688 148.652344 Z M 145.023438 149.359375 L 146.359375 148.734375 C 148.199219 147.886719 150.097656 147 151.839844 146.039062 C 155.089844 144.234375 158.367188 142.332031 161.53125 140.492188 C 163.757812 139.199219 165.980469 137.902344 168.21875 136.628906 C 161.65625 139.425781 155.121094 142.449219 148.660156 145.679688 C 146.460938 146.78125 144.230469 148.007812 142.027344 149.257812 C 143.027344 149.292969 144.023438 149.328125 145.023438 149.359375 Z M 167.367188 149.96875 C 170.609375 148.136719 174.074219 146.523438 177.429688 144.964844 C 180.6875 143.453125 183.761719 142.023438 186.640625 140.414062 C 192.417969 137.183594 198.34375 133.867188 204.441406 130.742188 L 203.554688 130.734375 C 192.203125 133.222656 181.84375 139.605469 171.820312 145.777344 C 170.101562 146.835938 168.382812 147.890625 166.679688 148.917969 C 166.148438 149.234375 165.605469 149.574219 165.054688 149.914062 C 165.828125 149.933594 166.597656 149.953125 167.367188 149.96875 Z M 326.445312 135.625 C 334.027344 142.46875 340.570312 149.101562 346.261719 155.71875 C 345.703125 153.164062 344.605469 150.34375 342.960938 147.285156 C 339.84375 141.46875 336.082031 136.039062 331.976562 130.921875 C 331.996094 131.089844 332.003906 131.257812 332.003906 131.421875 C 332.003906 133.675781 330.367188 135.375 328.015625 135.554688 C 327.496094 135.59375 326.96875 135.617188 326.445312 135.625 Z M 249.976562 256.417969 C 251.160156 263.882812 251.117188 271.371094 250.707031 279.363281 C 267.910156 255.371094 287.347656 232.695312 306.1875 210.722656 C 317.796875 197.1875 329.785156 183.203125 341.121094 169.058594 C 326.3125 150.15625 306.429688 134.195312 290.675781 122.347656 L 290.292969 122.058594 C 274.644531 110.289062 256.984375 97.007812 238.015625 91.546875 C 237.851562 97.53125 237.570312 103.5625 237.304688 109.414062 C 237.152344 112.714844 237 116.015625 236.867188 119.316406 C 236.726562 122.773438 236.699219 126.375 236.675781 129.855469 C 236.625 137.421875 236.566406 145.246094 235.367188 152.726562 C 235.019531 154.921875 232.894531 156.78125 230.726562 156.78125 C 230.695312 156.78125 230.554688 156.777344 230.523438 156.777344 C 228.910156 156.691406 227.160156 156.652344 225.011719 156.652344 C 224.519531 156.652344 224.039062 156.65625 223.554688 156.660156 C 223.519531 157.832031 223.160156 158.996094 222.511719 159.960938 C 221.570312 161.367188 220.125 162.222656 218.417969 162.390625 C 218.285156 162.425781 218.148438 162.441406 218.007812 162.441406 C 199.773438 162.40625 181.988281 162.164062 165.144531 161.726562 C 164.207031 161.898438 163.433594 162.003906 162.710938 162.066406 C 162.664062 162.070312 162.476562 162.078125 162.429688 162.078125 C 161.8125 162.078125 161.199219 161.914062 160.632812 161.59375 C 154.695312 161.425781 148.757812 161.203125 142.824219 160.976562 C 141.25 161.300781 139.71875 161.464844 138.273438 161.464844 C 137.742188 161.464844 137.210938 161.445312 136.683594 161.398438 C 136.054688 161.347656 135.476562 161.097656 135 160.6875 C 130.3125 160.492188 125.625 160.269531 120.9375 160.039062 C 119.65625 160.503906 118.566406 160.867188 117.53125 161.164062 C 117.242188 161.246094 116.949219 161.289062 116.648438 161.289062 C 115.78125 161.289062 114.929688 160.917969 114.308594 160.28125 C 114.128906 160.09375 113.972656 159.886719 113.839844 159.667969 L 95.179688 158.644531 C 88.859375 161.828125 83.675781 163.316406 78.894531 163.316406 C 77.070312 163.304688 75.636719 162.214844 75.167969 160.605469 C 74.839844 159.480469 75.066406 158.347656 75.742188 157.472656 C 70.890625 157.148438 66.3125 156.808594 61.871094 156.445312 C 58.796875 157.585938 56.066406 158.210938 53.535156 158.351562 C 53.503906 158.355469 53.390625 158.359375 53.355469 158.359375 C 51.980469 158.359375 50.695312 157.460938 50.15625 156.113281 C 50.058594 155.867188 49.984375 155.617188 49.945312 155.367188 C 37.308594 154.109375 26.046875 152.585938 15.671875 150.726562 C 15.875 151.003906 16.042969 151.308594 16.183594 151.640625 C 16.695312 152.867188 16.675781 154.285156 16.152344 155.441406 C 16.148438 155.554688 16.148438 155.679688 16.144531 155.824219 C 16.132812 157.078125 16.121094 158.335938 16.152344 159.585938 C 16.195312 161.714844 16.234375 163.839844 16.269531 165.964844 L 16.367188 171.273438 C 16.546875 180.160156 16.902344 189.191406 17.238281 197.929688 L 17.421875 202.714844 C 17.683594 209.503906 17.996094 216.292969 18.308594 223.078125 C 18.832031 234.394531 19.371094 246.074219 19.644531 257.609375 C 24.960938 257.179688 30.28125 256.769531 35.597656 256.359375 C 49.542969 255.285156 63.964844 254.175781 78.117188 252.664062 C 82.046875 252.242188 85.976562 251.816406 89.902344 251.386719 C 107.265625 249.492188 125.214844 247.53125 142.960938 246.433594 C 156.640625 245.589844 170.316406 245.476562 181.894531 245.476562 C 186.113281 245.476562 190.335938 245.492188 194.558594 245.507812 C 198.769531 245.523438 202.984375 245.542969 207.195312 245.542969 L 209.824219 245.542969 C 214.183594 245.53125 218.5625 245.453125 222.949219 245.378906 C 227.511719 245.292969 232.226562 245.210938 236.867188 245.210938 C 240.339844 245.210938 243.453125 245.257812 246.375 245.351562 C 248.195312 245.351562 249.746094 246.023438 250.824219 247.234375 C 251.980469 248.535156 252.542969 250.394531 252.328125 252.210938 C 252.226562 253.992188 251.355469 255.515625 249.976562 256.417969 Z M 242.707031 308.148438 C 240.964844 308.148438 239.394531 307.53125 238.289062 306.417969 C 237.207031 305.324219 236.644531 303.835938 236.664062 302.109375 C 236.714844 297.167969 237.097656 292.0625 237.464844 287.128906 C 238.203125 277.269531 238.960938 267.089844 237.164062 257.523438 C 234.1875 257.5625 231.214844 257.582031 228.234375 257.582031 C 219.167969 257.582031 209.949219 257.414062 201.03125 257.25 C 192.132812 257.089844 182.925781 256.921875 173.882812 256.921875 C 162.289062 256.921875 152.65625 257.191406 143.5625 257.769531 C 128.878906 258.703125 113.785156 260.402344 99.1875 262.042969 C 76.820312 264.5625 53.695312 267.164062 31.003906 267.164062 C 23.9375 267.164062 17.085938 266.90625 10.640625 266.402344 C 8.644531 266.246094 7.09375 264.847656 6.78125 262.917969 C 6.566406 261.574219 7.015625 260.296875 7.945312 259.441406 C 7.847656 247.28125 7.425781 234.921875 7.019531 222.960938 C 6.679688 212.96875 6.328125 202.632812 6.164062 192.457031 C 6.15625 192.058594 6.117188 191.226562 6.058594 190.058594 C 4.878906 166.1875 5.902344 153.914062 9.382812 150.261719 C 9.851562 149.769531 10.335938 149.453125 10.796875 149.257812 C 10.652344 149.136719 10.519531 149.015625 10.394531 148.882812 C 8.820312 149.542969 7.246094 150.195312 5.679688 150.824219 C 5.238281 150.996094 4.777344 151.089844 4.3125 151.089844 C 2.722656 151.089844 1.230469 150.023438 0.59375 148.433594 C -0.0078125 146.933594 0.308594 145.339844 1.425781 144.269531 C 8.945312 137.070312 18.683594 132.554688 28.101562 128.183594 C 34.363281 125.28125 40.832031 122.28125 46.429688 118.5625 C 49.523438 116.503906 53.542969 115.542969 59.078125 115.542969 C 61.953125 115.542969 64.855469 115.792969 67.65625 116.035156 C 69.886719 116.226562 71.988281 116.410156 73.886719 116.445312 C 80.035156 116.570312 86.179688 116.730469 92.324219 116.894531 C 95.84375 116.992188 99.359375 117.082031 102.878906 117.167969 C 136.398438 117.992188 180.628906 118.933594 225.503906 118.953125 C 225.539062 118.066406 225.574219 117.1875 225.597656 116.3125 C 225.902344 105.449219 225.890625 94.570312 225.878906 84.046875 C 225.878906 83.191406 226.03125 82.367188 226.332031 81.609375 C 225.996094 81.484375 225.695312 81.285156 225.433594 81.023438 C 224.640625 80.230469 224.289062 79.207031 224.417969 78.0625 C 224.964844 73.183594 235.03125 65.90625 251.089844 55.75 C 253.335938 54.324219 255.28125 53.097656 255.898438 52.617188 C 256.703125 51.988281 257.691406 51.660156 258.753906 51.660156 C 260.007812 51.660156 261.320312 52.121094 262.347656 52.9375 C 266.007812 55.816406 269.683594 58.675781 273.359375 61.535156 C 293.601562 77.289062 314.535156 93.582031 332.460938 113.011719 C 341.96875 123.3125 353.800781 136.132812 357.777344 151 C 359.996094 159.304688 358.683594 172.914062 350.546875 177.28125 C 339.355469 191.273438 327.5 205.125 316.039062 218.515625 C 292.644531 245.847656 268.457031 274.109375 248.777344 304.933594 C 247.511719 306.914062 245.1875 308.148438 242.707031 308.148438 " fill-opacity="1" fill-rule="nonzero"/></g><g clip-path="url(#776e9cf70c)"><path fill="#000000" d="M 243.121094 284.535156 L 253.96875 284.535156 L 253.96875 291.308594 L 243.121094 291.308594 Z M 243.121094 284.535156 " fill-opacity="1" fill-rule="nonzero"/></g></svg>