<svg xmlns="http://www.w3.org/2000/svg" xmlns:xlink="http://www.w3.org/1999/xlink" width="480" zoomAndPan="magnify" viewBox="0 0 360 359.999987" height="480" preserveAspectRatio="xMidYMid meet" version="1.0"><defs><clipPath id="341d5682a2"><path d="M 284.503906 173.226562 L 295.363281 173.226562 L 295.363281 180 L 284.503906 180 Z M 284.503906 173.226562 " clip-rule="nonzero"/></clipPath></defs><path fill="#000000" d="M 283.9375 260.226562 L 355.03125 189.101562 C 359.960938 184.171875 359.960938 176.054688 355.03125 171.125 L 283.9375 99.839844 C 279.007812 94.910156 270.894531 94.910156 265.964844 99.839844 C 261.035156 104.773438 261.035156 112.890625 265.964844 117.820312 L 315.429688 167.304688 L 12.761719 167.304688 C 5.765625 167.304688 0.0390625 173.03125 0.0390625 180.035156 C 0.0390625 187.035156 5.765625 192.761719 12.761719 192.761719 L 315.269531 192.761719 L 265.804688 242.246094 C 263.261719 244.792969 262.148438 247.976562 262.148438 251.316406 C 262.148438 254.65625 263.417969 257.839844 265.804688 260.386719 C 270.894531 265.160156 279.007812 265.160156 283.9375 260.226562 Z M 283.9375 260.226562 " fill-opacity="1" fill-rule="nonzero"/><g clip-path="url(#341d5682a2)"><path fill="#000000" d="M 284.503906 173.226562 L 295.355469 173.226562 L 295.355469 180 L 284.503906 180 Z M 284.503906 173.226562 " fill-opacity="1" fill-rule="nonzero"/></g></svg>