<svg xmlns="http://www.w3.org/2000/svg" xmlns:xlink="http://www.w3.org/1999/xlink" width="480" zoomAndPan="magnify" viewBox="0 0 360 359.999987" height="480" preserveAspectRatio="xMidYMid meet" version="1.0"><defs><clipPath id="fee9436050"><path d="M 211 111.480469 L 360 111.480469 L 360 248.730469 L 211 248.730469 Z M 211 111.480469 " clip-rule="nonzero"/></clipPath><clipPath id="b80c22dd83"><path d="M 270.949219 158.820312 L 281.804688 158.820312 L 281.804688 165.597656 L 270.949219 165.597656 Z M 270.949219 158.820312 " clip-rule="nonzero"/></clipPath></defs><g clip-path="url(#fee9436050)"><path fill="#000000" d="M 280.128906 111.492188 L 279.066406 143.84375 L 211.621094 144.199219 L 211.644531 152.199219 L 231.628906 152.199219 C 233.230469 152.199219 234.515625 153.488281 234.515625 155.089844 L 234.515625 156.59375 C 234.515625 158.195312 233.230469 159.484375 231.628906 159.484375 L 211.664062 159.484375 L 211.683594 167.660156 L 240.328125 167.660156 C 241.925781 167.660156 243.214844 168.953125 243.214844 170.554688 L 243.214844 172.058594 C 243.214844 173.660156 241.925781 174.953125 240.328125 174.953125 L 211.699219 174.953125 L 211.71875 181.527344 L 257.011719 181.527344 C 258.609375 181.527344 259.894531 182.816406 259.894531 184.417969 L 259.894531 185.925781 C 259.894531 187.527344 258.609375 188.816406 257.011719 188.816406 L 211.738281 188.816406 L 211.757812 196.28125 L 227.550781 196.28125 C 229.148438 196.28125 230.4375 197.570312 230.4375 199.171875 L 230.4375 200.679688 C 230.4375 202.28125 229.148438 203.570312 227.550781 203.570312 L 211.777344 203.570312 L 211.796875 211.746094 L 278.710938 212.457031 L 278.355469 248.71875 L 359.996094 176.90625 Z M 280.128906 111.492188 " fill-opacity="1" fill-rule="nonzero"/></g><path fill="#000000" d="M 168.964844 196.199219 L 211.890625 196.199219 L 211.890625 188.855469 L 168.964844 188.855469 Z M 168.964844 196.199219 " fill-opacity="1" fill-rule="nonzero"/><path fill="#000000" d="M 134.894531 152.199219 L 168.402344 152.199219 L 168.402344 144.289062 L 134.894531 144.289062 Z M 134.894531 152.199219 " fill-opacity="1" fill-rule="nonzero"/><path fill="#000000" d="M 105.777344 152.199219 L 128.496094 152.199219 L 128.496094 144.289062 L 105.777344 144.289062 Z M 105.777344 152.199219 " fill-opacity="1" fill-rule="nonzero"/><path fill="#000000" d="M 73.398438 167.273438 L 136.652344 167.273438 L 136.652344 159.363281 L 73.398438 159.363281 Z M 73.398438 167.273438 " fill-opacity="1" fill-rule="nonzero"/><path fill="#000000" d="M 55.203125 167.273438 L 65.871094 167.273438 L 65.871094 159.363281 L 55.203125 159.363281 Z M 55.203125 167.273438 " fill-opacity="1" fill-rule="nonzero"/><path fill="#000000" d="M 148.589844 167.53125 L 211.84375 167.53125 L 211.84375 159.621094 L 148.589844 159.621094 Z M 148.589844 167.53125 " fill-opacity="1" fill-rule="nonzero"/><path fill="#000000" d="M 89.90625 181.585938 L 211.90625 181.585938 L 211.90625 174.929688 L 89.90625 174.929688 Z M 89.90625 181.585938 " fill-opacity="1" fill-rule="nonzero"/><path fill="#000000" d="M 42.953125 181.40625 L 76.164062 181.40625 L 76.164062 173.496094 L 42.953125 173.496094 Z M 42.953125 181.40625 " fill-opacity="1" fill-rule="nonzero"/><path fill="#000000" d="M 15.089844 180.695312 L 31.792969 180.695312 L 31.792969 172.785156 L 15.089844 172.785156 Z M 15.089844 180.695312 " fill-opacity="1" fill-rule="nonzero"/><path fill="#000000" d="M 0.00390625 181.226562 L 7.65625 181.226562 L 7.65625 173.320312 L 0.00390625 173.320312 Z M 0.00390625 181.226562 " fill-opacity="1" fill-rule="nonzero"/><path fill="#000000" d="M 104.585938 196.199219 L 159.304688 196.199219 L 159.304688 188.855469 L 104.585938 188.855469 Z M 104.585938 196.199219 " fill-opacity="1" fill-rule="nonzero"/><path fill="#000000" d="M 56.769531 196.199219 L 92.664062 196.199219 L 92.664062 188.855469 L 56.769531 188.855469 Z M 56.769531 196.199219 " fill-opacity="1" fill-rule="nonzero"/><path fill="#000000" d="M 37.820312 196.199219 L 50.496094 196.199219 L 50.496094 188.855469 L 37.820312 188.855469 Z M 37.820312 196.199219 " fill-opacity="1" fill-rule="nonzero"/><path fill="#000000" d="M 20.125 196.199219 L 28.535156 196.199219 L 28.535156 188.855469 L 20.125 188.855469 Z M 20.125 196.199219 " fill-opacity="1" fill-rule="nonzero"/><path fill="#000000" d="M 69.695312 211.785156 L 78.109375 211.785156 L 78.109375 204.441406 L 69.695312 204.441406 Z M 69.695312 211.785156 " fill-opacity="1" fill-rule="nonzero"/><path fill="#000000" d="M 89.023438 211.785156 L 123.539062 211.785156 L 123.539062 204.441406 L 89.023438 204.441406 Z M 89.023438 211.785156 " fill-opacity="1" fill-rule="nonzero"/><path fill="#000000" d="M 133.828125 211.785156 L 188.171875 211.785156 L 188.171875 204.441406 L 133.828125 204.441406 Z M 133.828125 211.785156 " fill-opacity="1" fill-rule="nonzero"/><path fill="#000000" d="M 194.484375 211.785156 L 211.867188 211.785156 L 211.867188 203.625 L 194.484375 203.625 Z M 194.484375 211.785156 " fill-opacity="1" fill-rule="nonzero"/><path fill="#000000" d="M 178.691406 152.199219 L 205.175781 152.199219 L 205.175781 144.289062 L 178.691406 144.289062 Z M 178.691406 152.199219 " fill-opacity="1" fill-rule="nonzero"/><g clip-path="url(#b80c22dd83)"><path fill="#000000" d="M 270.949219 158.820312 L 281.796875 158.820312 L 281.796875 165.597656 L 270.949219 165.597656 Z M 270.949219 158.820312 " fill-opacity="1" fill-rule="nonzero"/></g></svg>