<svg xmlns="http://www.w3.org/2000/svg" xmlns:xlink="http://www.w3.org/1999/xlink" width="480" zoomAndPan="magnify" viewBox="0 0 360 359.999987" height="480" preserveAspectRatio="xMidYMid meet" version="1.0"><defs><clipPath id="5bf29d13ca"><path d="M 0 143 L 360 143 L 360 251 L 0 251 Z M 0 143 " clip-rule="nonzero"/></clipPath><clipPath id="1eafab1cc5"><path d="M 81.882812 36 L 368.914062 162.082031 L 278.125 368.769531 L -8.90625 242.691406 Z M 81.882812 36 " clip-rule="nonzero"/></clipPath><clipPath id="2307884a56"><path d="M 81.882812 36 L 368.914062 162.082031 L 278.125 368.769531 L -8.90625 242.691406 Z M 81.882812 36 " clip-rule="nonzero"/></clipPath><clipPath id="8371025871"><path d="M 81.882812 36 L 368.914062 162.082031 L 278.125 368.769531 L -8.90625 242.691406 Z M 81.882812 36 " clip-rule="nonzero"/></clipPath><clipPath id="3f385d330f"><path d="M 207 165 L 218 165 L 218 172 L 207 172 Z M 207 165 " clip-rule="nonzero"/></clipPath><clipPath id="be80ae26c6"><path d="M 207.863281 166.578125 L 216.023438 165.023438 L 217.011719 170.203125 L 208.851562 171.757812 Z M 207.863281 166.578125 " clip-rule="nonzero"/></clipPath></defs><g clip-path="url(#5bf29d13ca)"><g clip-path="url(#1eafab1cc5)"><g clip-path="url(#2307884a56)"><g clip-path="url(#8371025871)"><path fill="#000000" d="M 353.621094 174.613281 C 348.496094 168.664062 343.671875 162.507812 338.523438 156.617188 C 335.625 153.085938 332.726562 149.550781 329.457031 146.402344 C 328.140625 145.347656 327.078125 143.714844 325.453125 143.207031 C 321.882812 141.980469 319.269531 146.996094 322.277344 149.34375 C 329.902344 156.457031 337.90625 166.75 346.085938 176.644531 C 345.832031 176.601562 345.601562 176.5 345.375 176.398438 C 336.597656 173.777344 327.832031 171.296875 318.914062 169.160156 C 292.578125 162.726562 265.363281 158.917969 238.296875 160.996094 C 212.867188 163.726562 187.359375 169.433594 164.089844 180.023438 C 154.425781 184.40625 144.878906 191.027344 137.964844 199.289062 C 135.359375 197.734375 132.683594 196.351562 129.953125 195.085938 C 107.472656 184.390625 81.25 183.621094 57.71875 191.222656 C 42.585938 196.214844 28.078125 203.535156 15.753906 213.664062 C 9.585938 218.828125 4.15625 224.796875 -0.894531 230.996094 C -2.773438 233.253906 -4.621094 235.589844 -6.503906 237.84375 C -7.109375 238.605469 -7.375 239.515625 -7.269531 240.523438 C -6.949219 243.535156 -2.902344 244.765625 -1.03125 242.371094 C 8.726562 230.292969 16.074219 221.199219 28.21875 213.183594 C 48.730469 199.527344 76.085938 190.390625 100.507812 193.859375 C 111.671875 195.40625 123.949219 199.089844 133.839844 204.941406 C 128.820312 212.9375 126.308594 222.238281 128.109375 232.480469 C 128.828125 236.765625 130.203125 241.273438 133.414062 244.394531 C 139.214844 250.367188 149.679688 254.277344 155.78125 246.621094 C 162.863281 238.914062 161.484375 227.558594 157.011719 218.882812 C 154.164062 212.429688 149.421875 207.335938 143.855469 203.175781 C 146.742188 199.722656 150.234375 196.601562 154.199219 193.960938 C 174.308594 180.128906 200.585938 174.078125 225.875 169.644531 C 257.226562 164.65625 287.632812 168.835938 319.703125 176.558594 C 329.113281 178.980469 335.96875 180.824219 343.75 183.214844 C 338.058594 184.484375 331.984375 185.375 325.273438 186.46875 C 320.125 187.285156 315.003906 188.1875 309.894531 189.226562 C 306.84375 189.464844 305.621094 193.652344 308.042969 195.464844 C 310.058594 197.105469 312.707031 195.597656 314.972656 195.429688 C 321.78125 194.109375 328.582031 193.121094 335.371094 192 C 341.027344 191.128906 346.660156 189.835938 352.171875 188.355469 C 354.574219 187.558594 357.726562 187.234375 358.976562 184.703125 C 360.601562 180.691406 355.617188 177.542969 353.621094 174.613281 Z M 151.082031 223.195312 C 155.929688 233.195312 152.851562 240.199219 149.046875 243.25 C 145.777344 244.621094 144.351562 243.652344 140.847656 241.5 C 136.851562 238.441406 137.707031 239.296875 135.972656 235.457031 C 132.875 226.769531 134.589844 217.253906 139.589844 208.835938 C 144.785156 212.898438 148.867188 217.636719 151.082031 223.195312 Z M 151.082031 223.195312 " fill-opacity="1" fill-rule="nonzero"/></g></g></g></g><g clip-path="url(#3f385d330f)"><g clip-path="url(#be80ae26c6)"><path fill="#000000" d="M 207.863281 166.578125 L 216.019531 165.023438 L 217.007812 170.207031 L 208.851562 171.757812 Z M 207.863281 166.578125 " fill-opacity="1" fill-rule="nonzero"/></g></g></svg>